<?xml version="1.0" standalone="no"?>
<!DOCTYPE svg PUBLIC "-//W3C//DTD SVG 20010904//EN"
 "http://www.w3.org/TR/2001/REC-SVG-20010904/DTD/svg10.dtd">
<svg version="1.0" xmlns="http://www.w3.org/2000/svg"
 width="512.000000pt" height="512.000000pt" viewBox="0 0 512.000000 512.000000"
 preserveAspectRatio="xMidYMid meet">
<metadata>
Created by potrace 1.11, written by Peter Selinger 2001-2013
</metadata>
<g transform="translate(0.000000,512.000000) scale(0.100000,-0.100000)"
fill="#000000" stroke="none">
<path d="M4415 4808 c-69 -24 -109 -86 -120 -185 -16 -154 -117 -320 -237
-389 -46 -27 -113 -58 -129 -59 -9 -1 -21 -5 -28 -9 -12 -7 -25 -11 -86 -20
-20 -4 -40 -8 -44 -10 -4 -3 -76 -7 -161 -11 -271 -11 -362 -22 -507 -66 -54
-16 -102 -31 -108 -32 -48 -12 -215 -104 -275 -152 -56 -44 -161 -158 -195
-211 -43 -67 -92 -171 -100 -214 -1 -3 -4 -14 -8 -25 -20 -63 -29 -175 -16
-220 28 -101 162 -152 253 -96 49 31 73 75 87 161 29 183 157 339 339 414 25
10 54 22 65 27 11 5 29 11 40 13 11 2 38 9 60 14 80 21 145 29 315 37 142 6
233 13 270 19 123 20 172 34 280 79 283 118 477 367 527 677 20 124 -17 225
-93 254 -33 13 -98 15 -129 4z"/>
<path d="M1410 3225 c-25 -7 -52 -14 -60 -16 -39 -10 -172 -86 -235 -134 -233
-179 -425 -443 -583 -805 -20 -46 -91 -251 -97 -279 -2 -9 -10 -43 -18 -76 -9
-33 -18 -71 -21 -85 -2 -14 -9 -46 -15 -71 -6 -25 -13 -68 -15 -95 -3 -27 -9
-78 -14 -114 -6 -36 -9 -76 -8 -90 1 -14 -2 -33 -7 -43 -5 -11 -4 -23 2 -31 6
-7 8 -16 4 -20 -11 -11 -12 -156 -1 -156 5 0 7 -4 4 -9 -8 -12 39 -197 68
-266 102 -247 264 -420 416 -442 74 -12 183 -1 207 19 7 6 13 8 13 4 0 -10 98
42 164 87 33 22 129 108 214 191 259 252 283 274 397 350 85 57 231 128 311
152 32 10 64 19 69 21 156 46 500 51 673 9 12 -4 32 -8 44 -11 74 -16 231 -84
327 -140 64 -38 188 -134 251 -195 30 -29 121 -117 201 -195 80 -78 174 -161
209 -185 71 -48 187 -103 200 -95 5 3 11 1 14 -4 3 -4 16 -9 28 -10 13 -1 41
-3 63 -4 34 -2 58 1 120 16 6 2 25 10 44 20 110 55 225 191 303 357 48 103 99
280 90 314 -2 4 1 13 6 20 11 13 9 179 -2 214 -5 14 -3 22 4 22 6 0 8 5 3 13
-4 6 -8 23 -9 37 -1 14 -4 45 -8 70 -3 25 -8 65 -11 90 -13 108 -71 347 -107
443 -10 29 -21 59 -23 68 -19 88 -234 505 -266 517 -5 2 -9 8 -9 13 0 11 -54
83 -124 164 -156 183 -345 316 -506 358 -54 14 -176 15 -235 3 -101 -22 -220
-85 -305 -162 -316 -286 -412 -339 -620 -338 -118 0 -143 6 -272 62 -21 9 -38
19 -38 24 0 4 -5 8 -11 8 -17 0 -126 88 -274 223 -94 86 -217 156 -312 178
-70 16 -191 18 -243 4z m2258 -629 c48 -11 130 -87 138 -128 1 -5 2 -9 4 -10
5 -8 11 -47 10 -73 -5 -145 -130 -242 -270 -210 -177 40 -223 283 -73 388 24
17 55 33 70 35 15 2 29 5 30 6 4 4 61 -1 91 -8z m-1978 -209 l0 -174 138 0
c75 -1 154 -1 174 -2 l37 -1 -2 -172 -2 -173 -170 0 -170 -1 -3 -172 c-1 -95
-6 -172 -10 -173 -10 -1 -291 -1 -318 0 -20 1 -21 5 -20 144 1 78 -1 156 -4
172 l-6 30 -169 0 -170 0 0 168 c0 141 2 170 15 176 8 4 87 6 175 5 l160 -2
-1 174 -1 174 174 0 173 0 0 -173z m1662 -153 c105 -54 149 -178 100 -285 -59
-131 -224 -170 -335 -78 -129 106 -97 309 59 368 57 22 127 20 176 -5z m693 0
c162 -77 165 -303 5 -387 -47 -25 -63 -28 -111 -24 -90 8 -154 51 -187 127
-18 40 -25 127 -11 136 5 3 7 10 3 15 -3 5 7 29 22 53 59 93 179 128 279 80z
m-332 -354 c21 -12 52 -43 70 -69 26 -38 32 -57 35 -111 3 -57 -1 -71 -27
-117 -42 -71 -104 -107 -180 -107 -74 1 -98 8 -140 42 -53 42 -86 113 -84 184
2 47 8 67 35 108 18 27 38 50 45 50 7 0 13 4 13 9 0 5 17 16 38 24 52 22 146
16 195 -13z"/>
</g>
</svg>
